<?xml version="1.0" encoding="UTF-8"?>
<svg version="1.1" xmlns="http://www.w3.org/2000/svg" width="42" height="42">
<path d="M0 0 C1.32 0 2.64 0 4 0 C4.33 2.31 4.66 4.62 5 7 C5.99 5.02 6.98 3.04 8 1 C9.32 1.33 10.64 1.66 12 2 C11.01 4.97 10.02 7.94 9 11 C10.98 9.02 12.96 7.04 15 5 C15.99 5.33 16.98 5.66 18 6 C16.79618552 8.49361571 15.54571278 10.68143083 14 13 C16.31 12.34 18.62 11.68 21 11 C21.495 12.98 21.495 12.98 22 15 C19.69 15.99 17.38 16.98 15 18 C17.64 18.33 20.28 18.66 23 19 C23 20.32 23 21.64 23 23 C19.04 23.495 19.04 23.495 15 24 C17.31 24.99 19.62 25.98 22 27 C21.67 28.32 21.34 29.64 21 31 C18.36 30.34 15.72 29.68 13 29 C14.65 30.65 16.3 32.3 18 34 C17.67 34.99 17.34 35.98 17 37 C14.04590299 35.62845496 11.55991624 34.01136276 9 32 C9.99 34.64 10.98 37.28 12 40 C10.02 40.495 10.02 40.495 8 41 C7.01 39.02 6.02 37.04 5 35 C4.67 37.31 4.34 39.62 4 42 C2.68 42 1.36 42 0 42 C-0.33 39.69 -0.66 37.38 -1 35 C-1.99 36.98 -2.98 38.96 -4 41 C-5.32 40.67 -6.64 40.34 -8 40 C-7.01 37.03 -6.02 34.06 -5 31 C-6.98 32.98 -8.96 34.96 -11 37 C-11.99 36.67 -12.98 36.34 -14 36 C-12.79618552 33.50638429 -11.54571278 31.31856917 -10 29 C-12.31 29.66 -14.62 30.32 -17 31 C-17.33 29.68 -17.66 28.36 -18 27 C-15.69 26.01 -13.38 25.02 -11 24 C-13.64 23.67 -16.28 23.34 -19 23 C-19 21.68 -19 20.36 -19 19 C-15.04 18.505 -15.04 18.505 -11 18 C-13.31 17.01 -15.62 16.02 -18 15 C-17.67 13.68 -17.34 12.36 -17 11 C-13.04 11.99 -13.04 11.99 -9 13 C-10.65 11.35 -12.3 9.7 -14 8 C-13.67 7.01 -13.34 6.02 -13 5 C-10.04590299 6.37154504 -7.55991624 7.98863724 -5 10 C-5.99 7.36 -6.98 4.72 -8 2 C-6.68 1.67 -5.36 1.34 -4 1 C-3.01 2.98 -2.02 4.96 -1 7 C-0.67 4.69 -0.34 2.38 0 0 Z " fill="#C02015" transform="translate(19,0)"/>
</svg>
